<svg xmlns="http://www.w3.org/2000/svg" xml:space="preserve" width="442.972mm" height="199.275mm" version="1.1" style="shape-rendering:geometricPrecision; text-rendering:geometricPrecision; image-rendering:optimizeQuality; fill-rule:evenodd; clip-rule:evenodd"
viewBox="0 0 44297.2 19927.54"
 xmlns:xlink="http://www.w3.org/1999/xlink"
 xmlns:xodm="http://www.corel.com/coreldraw/odm/2003">
 <defs>
  <style type="text/css">
   <![CDATA[
    .fil0 {fill:#007D5E}
   ]]>
  </style>
 </defs>
 <g id="Camada_x0020_1">
  <metadata id="CorelCorpID_0Corel-Layer"/>
  <path class="fil0" d="M-7.13 313.14l-0.01 14624.08c985.75,669.38 2547.46,1383.67 3893.41,1781.99 1770.01,523.82 3129.38,606.4 5074.64,376.67 2651.56,-313.14 4815.31,-750.42 7369.43,-1186.05 3260.53,-450.97 6232.37,-729.49 9058.79,-21.32 786.95,38.58 1836.22,822.67 2322.45,1200.31 638.42,495.83 1229.13,1068.88 1969.88,1534.47 1613.92,1014.42 3441.75,1817.14 5385.77,908.22 1737.06,-812.16 2661.97,-1854.81 4120.3,-2890.59 649.06,-460.99 1364.24,-950.3 2240.2,-1269.3 919.64,-334.93 1876.33,-439.6 2857.18,-695.58l5.16 -14361.13 0 -314.39 -44297.2 0 0 312.62z"/>
 </g>
</svg>
